# xmcd
#
# Track frame offsets:
# 150
# 20775
# 34287
# 48637
# 67432
# 87757
# 104157
# 122045
# 137465
# 155705
# 174420
# 192217
# 210122
# 226572
# 242765
#
# Disc length: 3452 seconds
#
#
# Revision: 0
# Processed by: cddbd v1.5.1PL2 Copyright (c) Steve Scherf et al.
# Submitted via: FreeRIP 2.944 
#
DISCID=d10d7a0f
DTITLE=Alcymar Monteiro - Vaquejadas Brasileiras
DYEAR=1900
DGENRE=Folk
TTITLE0=Vida de gado
TTITLE1=O fazendeiro
TTITLE2=Debaixo dos lencois
TTITLE3=O de casa o de fora
TTITLE4=Vaqueiro nordestino
TTITLE5=Asa branca
TTITLE6=Morena do sertao
TTITLE7=Uma grande reforma (os sem terra)
TTITLE8=O sertao que a gente mora
TTITLE9=A filha do fazendeiro
TTITLE10=Carmelita
TTITLE11=Como eh grande a natureza
TTITLE12=Tristeza de uma vaqueiro
TTITLE13=Almaceio
TTITLE14=Terra do sol
EXTD=
EXTT0=
EXTT1=
EXTT2=
EXTT3=
EXTT4=
EXTT5=
EXTT6=
EXTT7=
EXTT8=
EXTT9=
EXTT10=
EXTT11=
EXTT12=
EXTT13=
EXTT14=
PLAYORDER=
